<svg width="256" height="64" viewBox="0 0 256 64" xmlns="http://www.w3.org/2000/svg">
  <defs>
    <linearGradient id="g1" x1="0" y1="0" x2="1" y2="1">
      <stop offset="0%" stop-color="#1565C0"/>
      <stop offset="100%" stop-color="#4CAF50"/>
    </linearGradient>
  </defs>
  <rect x="0" y="0" width="256" height="64" fill="none"/>
  <g transform="translate(8,8)">
    <path d="M16 28 L4 28 L4 18 L16 10 L28 18 L28 28 Z" fill="#1565C0"/>
    <rect x="12" y="20" width="8" height="8" fill="#FFFFFF"/>
    <path d="M30 8 h16 a4 4 0 0 1 4 4 v16 a20 20 0 0 1 -12 12 a20 20 0 0 1 -12 -12 V12 a4 4 0 0 1 4 -4 z" fill="#4CAF50"/>
  </g>
  <text x="64" y="40" font-family="Inter,Segoe UI,Arial" font-size="24" font-weight="600" fill="url(#g1)">
    Home Services
  </text>
</svg>